# xmcd CD database file
#
# Track frame offsets:
#	187
#	20625
#	36075
#	56587
#
# Disc length: 957 seconds
#
# Revision: 0
# Processed by: cddbd v1.5.1PL0 Copyright (c) Steve Scherf et al.
# Submitted via: CDex 1.51
#
DISCID=2d03bb04
DTITLE=Noel - 好きになっちゃうよ
DYEAR=1997
DGENRE=JPop
TTITLE0=好きになっちゃうよ
TTITLE1=幸せの色
TTITLE2=好きになっちゃうよ(Original Karaoke)
TTITLE3=幸せの色
EXTD=YEAR: 1997
EXTT0=
EXTT1=
EXTT2=
EXTT3=
PLAYORDER=
